<?xml version="1.0" encoding="UTF-8"?>
<svg id="Camada_2" data-name="Camada 2" xmlns="http://www.w3.org/2000/svg" xmlns:xlink="http://www.w3.org/1999/xlink" viewBox="0 0 612.56 67.64">
  <defs>
    <style>
      .cls-1 {
        fill: url(#Gradiente_sem_nome_162);
        stroke: url(#Gradiente_sem_nome_163);
        stroke-miterlimit: 10;
        stroke-width: 5px;
      }

      .cls-2 {
        fill: #450600;
      }
    </style>
    <radialGradient id="Gradiente_sem_nome_162" data-name="Gradiente sem nome 162" cx="312.83" cy="33.82" fx="312.83" fy="33.82" r="211.23" gradientTransform="translate(-13.61) scale(1.02 1)" gradientUnits="userSpaceOnUse">
      <stop offset="0" stop-color="#fff0ac"/>
      <stop offset=".42" stop-color="#fea"/>
      <stop offset=".57" stop-color="#ffeaa3"/>
      <stop offset=".68" stop-color="#ffe297"/>
      <stop offset=".76" stop-color="#ffd786"/>
      <stop offset=".84" stop-color="#ffc970"/>
      <stop offset=".91" stop-color="#ffb755"/>
      <stop offset=".96" stop-color="#ffa235"/>
      <stop offset="1" stop-color="#ff931e"/>
    </radialGradient>
    <radialGradient id="Gradiente_sem_nome_163" data-name="Gradiente sem nome 163" cx="231.74" cy="43.13" fx="231.74" fy="43.13" r="146.05" gradientTransform="translate(-46.61 .57) scale(1.52 .77)" gradientUnits="userSpaceOnUse">
      <stop offset="0" stop-color="#3fa9f5"/>
      <stop offset=".04" stop-color="#59a2ea"/>
      <stop offset=".1" stop-color="#8099dc"/>
      <stop offset=".16" stop-color="#a291cf"/>
      <stop offset=".24" stop-color="#bf8ac4"/>
      <stop offset=".32" stop-color="#d684bb"/>
      <stop offset=".41" stop-color="#e880b4"/>
      <stop offset=".52" stop-color="#f57daf"/>
      <stop offset=".67" stop-color="#fc7bac"/>
      <stop offset="1" stop-color="#ff7bac"/>
    </radialGradient>
  </defs>
  <g id="Camada_1-2" data-name="Camada 1">
    <rect class="cls-1" x="2.5" y="2.5" width="607.56" height="62.64"/>
    <g>
      <path class="cls-2" d="M260.03,43.21h2.6c.62,0,.81-.21.86-1.06v-12.34c0-1.22-.08-1.38-.96-1.48h-2.47v-1.92h7.14l10.67,14.18v-11.09l-.03-.52c-.03-.34-.13-.49-.31-.6-.1-.03-.18-.05-.29-.05h-2.18v-1.92h7.79v1.92h-2.08c-.75-.03-.81.05-.86,1.17-.03.1-.03.21-.03.31v15.3h-3.09l-11.19-14.86v11.45c0,1.27.13,1.51.86,1.51h2.18v1.9h-8.62v-1.9Z"/>
      <path class="cls-2" d="M293.92,25.89c6.1,0,10.05,4.05,10.02,9.87-.05,5.77-3.97,9.74-10.02,9.74s-10.05-4.05-10.02-9.87c.03-5.77,3.97-9.74,10.02-9.74ZM289.19,41.18c2.34,3.4,7.12,3.4,9.45,0,1.01-1.48,1.56-3.25,1.53-5.56-.03-5.04-2.88-7.97-6.26-7.97s-6.23,2.93-6.26,7.97c-.03,2.31.52,4.08,1.53,5.56Z"/>
      <path class="cls-2" d="M304.54,26.41h8.41l5.64,14.13,5.38-14.13h8.08v1.87h-2.18l-.39.03h-.13c-.1.03-.23.08-.34.16-.21.18-.31.44-.31,1.04v12.54c0,.86.21,1.14.7,1.17l.26.03h2.39v1.87h-9.51v-1.87h1.79c.6,0,.73-.13.78-.86.03-.13.03-.23.03-.34v-12.52l-5.82,15.58h-2.67l-6.1-15.32v12.86l.03.13c.03.26.21.44.44.47l.16.03h2.1v1.84h-8.7v-1.84h2.7c.52-.03.65-.18.75-.88.03-.1.03-.21.03-.31v-12.6c0-.78-.52-1.17-2.08-1.19h-.47l-.96-.03v-1.84Z"/>
      <path class="cls-2" d="M332.56,26.41h19.45v7.38h-1.82l-.03-1.35c-.03-3.04-1.43-4.18-5.17-4.18h-5.38v6.21h2.75c1.79,0,2.39-.54,2.39-2.41v-.86h1.77v8.62h-1.77v-.91c-.03-1.77-.65-2.39-2.21-2.39h-2.93v6.65h5.38c.26,0,.55,0,.81-.03,2.99-.18,4.36-1.53,4.39-4.39v-1.27h1.82v7.63h-19.45v-1.9h1.97c.08,0,.18,0,.29-.03,1.12-.08,1.25-.23,1.25-1.48v-11.89c0-1.25-.1-1.4-1.17-1.48h-2.34v-1.92Z"/>
    </g>
  </g>
</svg>