<?xml version="1.0" encoding="UTF-8"?>
<svg id="Camada_2" data-name="Camada 2" xmlns="http://www.w3.org/2000/svg" xmlns:xlink="http://www.w3.org/1999/xlink" viewBox="0 0 608.1 315.02">
  <defs>
    <style>
      .cls-1 {
        fill: #450600;
      }

      .cls-2 {
        fill: #fff0ac;
        stroke: url(#Gradiente_sem_nome_25);
        stroke-miterlimit: 10;
        stroke-width: 5px;
      }
    </style>
    <radialGradient id="Gradiente_sem_nome_25" data-name="Gradiente sem nome 25" cx="-11.41" cy="157.51" fx="-11.41" fy="157.51" r="209.81" gradientTransform="translate(317.87) scale(1.21 1)" gradientUnits="userSpaceOnUse">
      <stop offset="0" stop-color="#df3224"/>
      <stop offset=".23" stop-color="#e03523"/>
      <stop offset=".42" stop-color="#e34023"/>
      <stop offset=".61" stop-color="#e95222"/>
      <stop offset=".79" stop-color="#f16b20"/>
      <stop offset=".97" stop-color="#fc8b1e"/>
      <stop offset="1" stop-color="#ff931e"/>
    </radialGradient>
  </defs>
  <g id="Camada_1-2" data-name="Camada 1">
    <g>
      <rect class="cls-2" x="2.5" y="2.5" width="603.1" height="310.02"/>
      <g>
        <path class="cls-1" d="M93.68,101.63h46.53v17.66h-4.26l-.06-2.94c0-.69-.06-1.32-.19-2-.88-5.89-3.76-8.08-11.52-8.08h-13.59v15.41h6.26c4.45,0,5.95-1.13,6.39-4.7.06-.44.06-.88.06-1.31v-2.25h4.13v20.73h-4.01v-2.13c0-4.38-1.63-5.89-6.14-5.89h-6.7v12.4c0,2.94.38,3.38,3.32,3.57.25,0,.5.06.75.06h4.76v4.57h-25.68v-4.57h5.26c.19,0,.44-.06.63-.06,2.07-.19,2.38-.69,2.38-3.57v-28.68c0-2.88-.38-3.38-2.38-3.57h-5.95v-4.63Z"/>
        <path class="cls-1" d="M131.82,142.15h1.57l.69-.06c1.63-.25,2-.63,3.32-3.57l16.09-36.88h8.33l15.72,36.88c1.06,2.38,1.69,3.01,3.19,3.44.5.13.75.19.88.19h1.44v4.57h-19.6v-4.57h4.7c1.25,0,1.5-.38,1.32-1.57l-.94-2.07-2.82-6.83h-19.41l-2.94,6.83c-.25.56-.5,1.06-.69,1.63-.56,1.38-.13,2,1.19,2h4.76v4.57h-16.78v-4.57ZM163.75,127.12l-7.7-18.41-7.77,18.41h15.47Z"/>
        <path class="cls-1" d="M170.89,101.63h20.54v4.63h-4.76c-1.69,0-2.07.56-1.38,2.32.13.44.31.88.5,1.25l12.02,28.37,12.21-28.37c1.19-2.88,1.06-3.38-.81-3.57h-5.32v-4.63h17.78v4.63h-2.25c-1.13.19-1.88.63-2.25,1.13l-.06.06-.44.81-.88,1.57-15.97,36.88h-7.51l-15.78-36.88c-.69-1.69-1-2.13-1.44-2.63-.81-.75-1.32-.94-2.19-.94h-2v-4.63Z"/>
        <path class="cls-1" d="M244.47,100.38c14.72,0,24.23,9.77,24.17,23.8-.13,13.9-9.58,23.48-24.17,23.48s-24.23-9.77-24.17-23.8c.06-13.9,9.58-23.48,24.17-23.48ZM233.07,137.26c5.64,8.2,17.16,8.2,22.79,0,2.44-3.57,3.76-7.83,3.69-13.4-.06-12.15-6.95-19.22-15.09-19.22s-15.03,7.08-15.09,19.22c-.06,5.57,1.25,9.83,3.69,13.4Z"/>
        <path class="cls-1" d="M271.15,142.15h5.45c.25,0,.44,0,.63-.06,2-.19,2.32-.63,2.32-3.57v-28.68c0-2.94-.56-3.57-2.88-3.57h-5.45v-4.63h27.18c11.21,0,16.16,3.01,17.66,8.33,1.69,5.95-1.25,10.96-8.64,13.46-.38.06-.75.19-1.13.31.31.12.69.25,1.06.38,5.7,2.5,6.83,4.88,7.26,15.97,0,.19.06.38.31,1.13.31,1,.94,1.5,1.82,1.5,1.38.06,2.13-.88,2.38-3.95v-4.82h4.13v4.45c0,6.32-3.44,9.39-9.27,8.83-2.94-.31-4.95-1.57-6.01-3.51-1.25-2.25-1.32-2.69-2.25-10.83-.5-4.76-3.32-6.89-10.4-6.89h-7.2v12.53c0,2.94.31,3.44,2.38,3.57.19.06.44.06.69.06h4.76v4.57h-24.8v-4.57ZM288.12,121.55h11.15c5.64,0,8.77-3.07,8.64-7.77-.13-4.7-3.19-7.45-9.02-7.45h-10.77v15.22Z"/>
        <path class="cls-1" d="M340.97,142.15h6.26c1.5,0,1.94-.5,2.07-2.57v-29.75c0-2.94-.19-3.32-2.32-3.57h-5.95v-4.63h17.22l25.74,34.19v-26.74l-.06-1.25c-.06-.81-.31-1.19-.75-1.44-.25-.06-.44-.13-.69-.13h-5.26v-4.63h18.79v4.63h-5.01c-1.82-.06-1.94.13-2.07,2.82-.06.25-.06.5-.06.75v36.88h-7.45l-26.99-35.82v27.62c0,3.07.31,3.63,2.07,3.63h5.26v4.57h-20.79v-4.57Z"/>
        <path class="cls-1" d="M395.38,142.15h1.57l.69-.06c1.63-.25,2-.63,3.32-3.57l16.09-36.88h8.33l15.72,36.88c1.06,2.38,1.69,3.01,3.19,3.44.5.13.75.19.88.19h1.44v4.57h-19.6v-4.57h4.7c1.25,0,1.5-.38,1.32-1.57l-.94-2.07-2.82-6.83h-19.41l-2.94,6.83c-.25.56-.5,1.06-.69,1.63-.56,1.38-.13,2,1.19,2h4.76v4.57h-16.78v-4.57ZM410.79,96.5c1.31-6.33,5.01-7.77,13.53-4.26,2.63,1.07,4.13.5,4.95-1.57.06-.12.06-.25.12-.44h1.94c.06.5.06.94.06,1.44-.56,6.14-4.32,7.39-13.71,3.76-.31-.12-.56-.19-.88-.25-2.19-.31-3.57.44-4.13,2.13-.06.19-.06.31-.13.5h-1.94c0-.44.06-.88.19-1.31ZM427.32,127.12l-7.7-18.41-7.77,18.41h15.47Z"/>
        <path class="cls-1" d="M469.59,100.38c14.72,0,24.23,9.77,24.17,23.8-.13,13.9-9.58,23.48-24.17,23.48s-24.23-9.77-24.17-23.8c.06-13.9,9.58-23.48,24.17-23.48ZM458.19,137.26c5.64,8.2,17.16,8.2,22.79,0,2.44-3.57,3.76-7.83,3.69-13.4-.06-12.15-6.95-19.22-15.09-19.22s-15.03,7.08-15.09,19.22c-.06,5.57,1.25,9.83,3.69,13.4Z"/>
        <path class="cls-1" d="M39.17,204.55h4.51c.25,0,.44,0,.63-.06,2.82-.19,3.32-.69,3.32-3.57v-28.68c0-3.07-.25-3.38-3.01-3.57h-5.32v-4.63h29.43c.81,0,1.63.06,2.5.12,8.33.63,12.46,3.69,13.78,8.89,2.19,8.64-3.63,15.53-16.47,15.53h-12.4v12.34c0,2.63.5,3.32,2.38,3.51l1.69.06.56.06h4.76v4.57h-26.36v-4.57ZM65.47,184.2c5.32,0,7.77-.94,9.33-2.88,2.69-3.26,2.69-6.76.25-9.83-1.75-2.07-4.2-3.01-9.21-3.01h-9.71v15.72h9.33Z"/>
        <path class="cls-1" d="M86.2,164.04h46.9v17.78h-4.38l-.06-3.26c-.06-7.33-3.44-10.08-12.46-10.08h-12.96v14.97h6.64c4.32,0,5.76-1.31,5.76-5.82v-2.07h4.26v20.79h-4.26v-2.19c-.06-4.26-1.57-5.76-5.32-5.76h-7.08v16.03h12.96c.63,0,1.32,0,1.94-.06,7.2-.44,10.52-3.7,10.58-10.58v-3.07h4.38v18.41h-46.9v-4.57h4.76c.19,0,.44,0,.69-.06,2.69-.19,3.01-.56,3.01-3.57v-28.68c0-3.01-.25-3.38-2.82-3.57h-5.64v-4.63Z"/>
        <path class="cls-1" d="M135.6,164.04h24.92c18.6,0,28.24,10.96,25.3,27.3-1.82,9.89-8.89,16.28-20.23,17.53-1.32.19-2.63.25-3.95.25h-25.93v-4.57h4.38c3.57-.06,4.01-.56,4.01-3.63v-28.68c.06-2.94-.25-3.38-3.07-3.57h-5.45v-4.63ZM161.78,204.62c8.77,0,13.71-4.63,15.15-15.59.25-2.07.19-4.2-.13-6.2-1.69-10.08-6.64-14.09-15.28-14.09h-8.83v35.88h9.08Z"/>
        <path class="cls-1" d="M188.77,164.04h25.3v4.63h-5.57c-2.38.19-2.76.69-2.76,3.57v28.68c0,3.07.25,3.38,2.76,3.57.19.06.44.06.63.06h4.95v4.57h-25.24v-4.57h4.76c.19,0,.44,0,.69-.06,2.5-.19,2.88-.56,2.88-3.57v-28.68c0-3.13-.19-3.38-2.94-3.57h-5.45v-4.63Z"/>
        <path class="cls-1" d="M215.32,204.55h5.45c.25,0,.44,0,.63-.06,2-.19,2.32-.63,2.32-3.57v-28.68c0-2.94-.56-3.57-2.88-3.57h-5.45v-4.63h27.18c11.21,0,16.16,3.01,17.66,8.33,1.69,5.95-1.25,10.96-8.64,13.46-.38.06-.75.19-1.13.31.31.12.69.25,1.06.38,5.7,2.51,6.83,4.88,7.26,15.97,0,.19.06.38.31,1.13.31,1,.94,1.5,1.82,1.5,1.38.06,2.13-.88,2.38-3.95v-4.82h4.13v4.45c0,6.33-3.44,9.39-9.27,8.83-2.94-.31-4.95-1.56-6.01-3.51-1.25-2.25-1.32-2.69-2.25-10.83-.5-4.76-3.32-6.89-10.4-6.89h-7.2v12.52c0,2.94.31,3.44,2.38,3.57.19.06.44.06.69.06h4.76v4.57h-24.8v-4.57ZM232.29,183.95h11.15c5.64,0,8.77-3.07,8.64-7.76-.13-4.7-3.19-7.45-9.02-7.45h-10.77v15.22Z"/>
        <path class="cls-1" d="M285.14,164.04h20.29l13.59,34.07,12.96-34.07h19.48v4.51h-5.26l-.94.06h-.31c-.25.06-.56.19-.81.38-.5.44-.75,1.06-.75,2.5v30.25c0,2.07.5,2.75,1.69,2.82l.63.06h5.76v4.51h-22.92v-4.51h4.32c1.44,0,1.75-.31,1.88-2.07.06-.31.06-.56.06-.81v-30.18l-14.03,37.57h-6.45l-14.72-36.95v31l.06.31c.06.63.5,1.06,1.06,1.13l.38.06h5.07v4.45h-20.98v-4.45h6.51c1.25-.06,1.57-.44,1.82-2.13.06-.25.06-.5.06-.75v-30.37c0-1.88-1.25-2.82-5.01-2.88h-1.13l-2.32-.06v-4.45Z"/>
        <path class="cls-1" d="M352.52,164.04h22.11v4.63h-3.88c-2.44.19-2.82.69-2.82,3.57v20.54c0,8.83,3.82,12.96,11.96,13.03,8.2,0,11.9-4.26,11.9-14.65v-18.91c0-3.07-.38-3.57-2.19-3.57h-4.76v-4.63h19.48v4.63h-4.88c-1.44.25-1.94,1-1.94,3.57v19.1c0,13.53-7.2,20.29-21.35,18.97-11.96-1.13-16.78-6.45-16.78-17.1v-20.98c0-.31,0-.56-.06-.88-.25-2-.56-2.38-1.94-2.69h-4.82v-4.63ZM383.02,149.89l3.13,4.2-11.15,7.08-1.94-2.76,9.96-8.52Z"/>
        <path class="cls-1" d="M406.62,191.59h4.57c.06.56.19,1.13.31,1.69,1.75,6.58,6.64,10.9,14.09,12.02,5.01.81,8.45-.06,10.83-1.94,3.76-2.94,3.51-8.08-.31-10.52-1.69-1.13-4.2-2-13.09-3.82-1.69-.38-3.38-.63-5.07-.94-1.19-.19-2.69-.75-5.51-2.38-4.63-2.76-6.7-7.64-5.39-12.78,1.69-6.76,10.21-11.9,22.04-9.27,3.26.69,5.51,1.75,8.39,4.01l.88.69.5.38,1.63-4.7h4.2v16.47h-4.38c-.13-.75-.38-1.5-.63-2.19-1.38-4.07-3.82-6.95-6.89-8.71-1.75-1-3.51-1.56-5.51-1.82-3.51-.38-6.07-.12-7.83.5-1.63.63-2.69,1.25-3.51,2.07-2.63,2.38-2.25,6.58.75,8.64,1.69,1.13,4.57,2.13,17.16,4.63.75.13,1.5.31,2.19.56,7.89,2.63,11.15,7.33,10.4,13.9-.94,7.33-7.64,12.46-18.91,11.77-1.88-.12-3.69-.44-5.45-1-4.57-1.38-7.58-3.07-9.89-5.32l-1.38,5.32h-4.2v-17.28Z"/>
        <path class="cls-1" d="M448.52,164.04h25.3v4.63h-5.57c-2.38.19-2.76.69-2.76,3.57v28.68c0,3.07.25,3.38,2.76,3.57.19.06.44.06.63.06h4.95v4.57h-25.24v-4.57h4.76c.19,0,.44,0,.69-.06,2.5-.19,2.88-.56,2.88-3.57v-28.68c0-3.13-.19-3.38-2.94-3.57h-5.45v-4.63Z"/>
        <path class="cls-1" d="M515.4,164.1h4.2v17.16h-4.76c0-.63-.06-1.25-.19-1.88-1.06-6.7-5.26-10.96-11.58-12.02-10.65-1.82-19.29,7.33-17.03,23.11,1.25,8.39,5.64,13.4,11.52,14.72,8.39,1.88,15.28-2.69,16.91-10.77.13-.69.25-1.44.25-2.19h4.76c.06.94,0,1.94-.19,2.88-1.38,10.02-9.96,16.41-23.17,14.9-4.63-.5-8.58-2.13-11.9-4.95-4.95-4.2-7.83-10.52-7.89-18.41-.06-11.27,5.7-19.6,14.84-22.86,8.58-3.01,17.47-.94,22.86,4.7l1.38-4.38Z"/>
        <path class="cls-1" d="M518.34,204.55h1.57l.69-.06c1.63-.25,2-.63,3.32-3.57l16.09-36.88h8.33l15.72,36.88c1.06,2.38,1.69,3.01,3.19,3.44.5.12.75.19.88.19h1.44v4.57h-19.6v-4.57h4.7c1.25,0,1.5-.38,1.32-1.57l-.94-2.07-2.82-6.83h-19.41l-2.94,6.83c-.25.56-.5,1.06-.69,1.63-.56,1.38-.13,2,1.19,2h4.76v4.57h-16.78v-4.57ZM550.28,189.53l-7.7-18.41-7.77,18.41h15.47Z"/>
      </g>
    </g>
  </g>
</svg>